PathFileType	4	(X/Y/Z)	RBDS023\RBDS023runT45.trc
DataRate	CameraRate	NumFrames	NumMarkers	Units	OrigDataRate	OrigDataStartFrame	OrigNumFrames
150.000000	150.000000	4	33	mm	150.000000	0	4500
Frame#	Time	L.ASIS			L.Heel.Bottom			L.Heel.Lateral			L.Heel.Top			L.Iliac.Crest			L.MT1			L.MT5			L.PSIS			L.Shank.Bottom.Lateral			L.Shank.Bottom.Medial			L.Shank.Top.Lateral			L.Shank.Top.Medial			L.Thigh.Bottom.Lateral			L.Thigh.Bottom.Medial			L.Thigh.Top.Lateral			L.Thigh.Top.Medial			R.ASIS			R.ASY			R.Heel.Bottom			R.Heel.Lateral			R.Heel.Top			R.Iliac.Crest			R.MT1			R.MT5			R.PSIS			R.Shank.Bottom.Lateral			R.Shank.Bottom.Medial			R.Shank.Top.Lateral			R.Shank.Top.Medial			R.Thigh.Bottom.Lateral			R.Thigh.Bottom.Medial			R.Thigh.Top.Lateral			R.Thigh.Top.Medial			
		X1	Y1	Z1	X2	Y2	Z2	X3	Y3	Z3	X4	Y4	Z4	X5	Y5	Z5	X6	Y6	Z6	X7	Y7	Z7	X8	Y8	Z8	X9	Y9	Z9	X10	Y10	Z10	X11	Y11	Z11	X12	Y12	Z12	X13	Y13	Z13	X14	Y14	Z14	X15	Y15	Z15	X16	Y16	Z16	X17	Y17	Z17	X18	Y18	Z18	X19	Y19	Z19	X20	Y20	Z20	X21	Y21	Z21	X22	Y22	Z22	X23	Y23	Z23	X24	Y24	Z24	X25	Y25	Z25	X26	Y26	Z26	X27	Y27	Z27	X28	Y28	Z28	X29	Y29	Z29	X30	Y30	Z30	X31	Y31	Z31	X32	Y32	Z32	X33	Y33	Z33	

1	0	2378.831007463742	983.6510948442166	928.5640820958042	1835.851464896437	113.7844163042198	1038.264356002606	1865.831416155076	119.4571755241259	995.8415739477726	1863.591857399461	151.7193058241546	1036.300007117218	2317.532288470821	1058.203509032528	880.7611973186243	2041.735366477888	31.75344253604394	1066.448596536993	1999.970199858045	40.69824378734769	954.9822356336648	2205.074375784768	1037.519043989234	990.1703340140134	1978.591234121078	195.0989815516322	968.3706649169774	1943.975036865358	221.9629399460894	994.2643135453468	2016.331493349357	262.1347568248635	942.9778115185117	1983.440417804711	293.310351846101	970.6684869749828	2231.415845860716	635.4751491901862	880.5184681966539	2174.00309210122	645.3822070384042	920.8576523356249	2237.810802007489	744.4500340249411	868.6589323612869	2183.921329007644	754.7162821258758	909.0261576526779	2394.490645976927	995.8669425160626	1139.756748497703	2298.612522781586	245.2004277808318	1100.425679919281	2135.135071923981	356.8570717458819	1086.40198974928	2168.896503816946	350.1601419212216	1129.267964126035	2177.191679538175	378.9042706003334	1082.513147981218	2323.919348487591	1079.313822399664	1189.079895256504	2279.958787942382	187.1308747589845	1057.947561182464	2263.548333576869	216.1090424244717	1167.714263519142	2212.24781712819	1042.28711060823	1098.199196437974	2299.062237542796	385.2350235595961	1142.253411476146	2270.117029001402	424.0814854150057	1115.69136530391	2355.231630253787	442.0028963341952	1159.10336161752	2326.30746269932	478.2558808157335	1131.677784804272	2510.494225202687	671.1178219465266	1188.209159576454	2471.46989603922	638.8945177737903	1137.669440246318	2426.179880776298	740.7319663012446	1205.304842114866	2388.253732665845	706.9357090401838	1157.911899004969	
2	0.006666666666666667	2383.793323876148	988.754679280452	928.9810223068032	1819.952186463054	130.354621139001	1036.089445355078	1849.843461617739	132.6310910207322	993.5954787473594	1850.592152266971	165.0774335435255	1033.770833351969	2326.903395753915	1063.895051200529	880.4700204120998	2014.533173245548	31.53176249511155	1065.594538464818	1974.078887831544	41.93487139044465	953.728695739197	2208.924581228222	1043.047434985836	987.8186484874232	1961.943365231029	204.3562598371135	965.7585144692184	1927.662614465153	230.2338341668254	992.943198468324	1998.713694175217	272.2582427326178	941.4131965316642	1966.188783170517	302.3875712819133	970.4832190250328	2220.905333219325	644.9663704301075	881.7749989528136	2164.558832485634	657.665860574362	922.8102682095912	2232.514651057199	753.2739058569867	869.5095949972942	2179.614924781763	765.9588803926739	910.416517950174	2397.548431370136	1002.497235394771	1138.446269195387	2332.028502781765	232.9406152628332	1097.788299671951	2160.582811548782	329.2301709765863	1082.512236808682	2194.113085195685	325.3897738141663	1125.775224284098	2200.338060282442	354.7198280509197	1079.039249267005	2325.426096982653	1086.296199628797	1188.201948947217	2319.073842747413	173.8813693061503	1055.198375822561	2299.347348264896	200.843112067932	1164.76262667582	2215.165992633388	1048.306635198953	1096.326246645429	2320.376205142568	371.3986885373417	1139.697160623633	2288.919240536168	407.5956371408648	1112.515966072893	2371.433576653668	432.0442520999775	1156.840504776723	2340.387799053624	465.8040906454412	1128.752497362415	2513.902537411348	679.4722398410916	1187.381957870145	2474.903262807582	646.2817745252291	1136.925089219216	2429.139943850194	748.0940342317307	1204.476410700858	2391.161870812399	713.763231765094	1157.601182902223	
3	0.01333333333333333	2388.698678328878	993.7876020763474	929.3911934690638	1804.437814011444	147.0520280632122	1034.074289906335	1834.158953844233	146.0236070303106	991.4997348987287	1837.87481530709	178.5866064381512	1031.38498323256	2336.036973265356	1069.591785649361	880.2344684999674	1987.762878176699	31.87104400455188	1064.671657641175	1948.484824814921	43.74363288775277	952.5088137109188	2212.788325935101	1048.536595154847	985.4985515952438	1945.535178046018	213.787119938684	963.2460383213439	1911.602165642834	238.7055002502431	991.6934491603018	1981.382042265985	282.5194309840607	939.9312264699601	1949.246635560521	311.6267476644573	970.3633642814956	2210.656039401285	654.4595868183604	882.9348298446114	2155.395567253072	669.9002818757918	924.647042046598	2227.397223293846	762.0471527940615	870.2679241357816	2175.516489530648	777.1178198882286	911.7112522823364	2400.544656000078	1008.94623454038	1137.228378239655	2365.547680717277	220.993114623639	1095.146370295779	2186.528403354884	301.8007284675046	1078.590051769029	2219.76865821424	300.7893394820226	1122.252151090517	2223.907152596186	330.6658574406217	1075.540571750062	2326.859514803031	1093.177260046015	1187.346596386741	2358.285040955232	161.0973303313498	1052.443142205271	2335.298128456883	185.9249514284026	1161.800353824836	2218.071707918212	1054.254810286291	1094.442937627481	2341.873808786218	357.5818235741933	1137.151784530047	2307.9690584655	391.1112211164673	1109.372076712175	2387.761858027377	421.9680783602987	1154.623203470063	2354.636578904679	453.2189252114273	1125.893763187857	2517.087114837887	687.4360840260545	1186.529491944523	2478.007058380253	653.2615155198013	1136.309155233748	2431.956036761752	755.2027194898669	1203.588057377802	2393.84939018336	720.3227985856695	1157.330018472406	
4	0.02	2393.495606847837	998.6906582485395	929.790793313306	1789.547504815937	163.9614262740375	1032.399066395533	1818.94788608028	159.8121560603079	989.7199947630434	1825.589031257018	192.3710029450464	1029.298590250019	2344.733264597658	1075.299711457473	880.10563332061	1961.788898005567	33.25883040805031	1063.628208473302	1923.40658622571	46.62181482812711	951.3708651120622	2216.678469964546	1053.960660170148	983.2413455104479	1929.516127610927	223.5549021627796	960.9403843253928	1895.954039200064	247.5733898710658	990.5968172080936	1964.538647698209	293.0530726657959	938.6170043911416	1932.835427081645	321.1935959696642	970.3750741476084	2200.904158676819	663.9713563734758	883.9109104395751	2146.758970028597	682.0610630488923	926.2535758651741	2222.625384793514	770.7378068074605	870.846856051048	2171.811257801521	788.1362761477845	912.8107474359321	2403.426254543481	1015.045664152706	1136.185488089889	2399.317357754428	209.7041175921874	1092.48994201885	2213.522006544125	274.7893430508719	1074.628534573169	2246.364539258541	276.5536815390478	1118.687892761273	2248.372264016308	306.8926277189009	1072.019217598984	2328.157139350125	1099.851766421529	1186.535496566056	2397.723064480479	149.2819407160064	1049.661686212604	2371.620425680469	171.7439466150705	1158.811195235475	2220.95919204235	1060.071510568401	1092.548248054959	2363.777189180278	343.8295255652203	1134.639192264349	2327.552748425675	374.648138677489	1106.300536669017	2404.373732983413	411.6857434071045	1152.504362259078	2369.257525775243	440.3878861368183	1123.171900446877	2519.824307540345	694.6266837060975	1185.655002741899	2480.478355163586	659.4538717647495	1135.934432521029	2434.481688323208	761.8021158745244	1202.607171764295	2396.112195181899	726.3596926396507	1157.131863028093	
